<?xml version="1.0" encoding="UTF-8"?>
<svg xmlns="http://www.w3.org/2000/svg" xmlns:xlink="http://www.w3.org/1999/xlink" width="14pt" height="14pt" viewBox="0 0 14 14" version="1.1">
<g id="surface1">
<path style=" stroke:none;fill-rule:nonzero;fill:rgb(11.764706%,53.333333%,89.803922%);fill-opacity:1;" d="M 13.660156 11.140625 C 13.382812 11.472656 12.972656 11.667969 12.542969 11.667969 L 1.457031 11.667969 C 1.027344 11.667969 0.617188 11.472656 0.339844 11.140625 L 5.6875 6.683594 L 6.242188 7.0625 C 6.699219 7.378906 7.300781 7.378906 7.757812 7.0625 L 8.3125 6.683594 Z M 13.660156 11.140625 "/>
<path style=" stroke:none;fill-rule:nonzero;fill:rgb(39.215686%,70.980392%,96.470588%);fill-opacity:1;" d="M 13.742188 2.96875 L 8.3125 6.683594 L 7.757812 7.0625 C 7.300781 7.378906 6.699219 7.378906 6.242188 7.0625 L 5.6875 6.683594 L 0.257812 2.964844 C 0.53125 2.570312 0.980469 2.332031 1.457031 2.332031 L 12.542969 2.332031 C 13.023438 2.332031 13.472656 2.570312 13.742188 2.96875 Z M 13.742188 2.96875 "/>
<path style=" stroke:none;fill-rule:nonzero;fill:rgb(12.941176%,58.823529%,95.294118%);fill-opacity:1;" d="M 5.6875 6.683594 L 0.339844 11.140625 C 0.121094 10.878906 0 10.550781 0 10.207031 L 0 3.792969 C 0 3.496094 0.0898438 3.207031 0.257812 2.964844 Z M 5.6875 6.683594 "/>
<path style=" stroke:none;fill-rule:nonzero;fill:rgb(12.941176%,58.823529%,95.294118%);fill-opacity:1;" d="M 14 3.792969 L 14 10.207031 C 14 10.550781 13.878906 10.878906 13.660156 11.140625 L 8.3125 6.683594 L 13.742188 2.96875 C 13.910156 3.210938 14 3.496094 14 3.792969 Z M 14 3.792969 "/>
</g>
</svg>
